<svg width="165" height="42" viewBox="0 0 165 42" fill="none" xmlns="http://www.w3.org/2000/svg">
<g clip-path="url(#clip0_639_563)">
<path d="M6.96358 23.5438C6.82184 24.0709 6.63697 24.4632 6.42128 24.7268C6.02688 25.2172 5.45378 25.4562 4.70812 25.4562C3.96246 25.4562 3.37086 25.1743 2.89636 24.6042C2.42185 24.0342 2.18151 23.1821 2.18151 22.0359C2.18151 20.8897 2.40336 20.0131 2.85322 19.3879C3.30308 18.7627 3.91316 18.4501 4.69579 18.4501C5.47843 18.4501 6.03921 18.6708 6.42744 19.1121C6.64313 19.3634 6.82184 19.7312 6.96358 20.2154H9.10195C9.07114 19.5779 8.8308 18.9466 8.39327 18.3152C7.59831 17.1935 6.33501 16.6296 4.61568 16.6296C3.32773 16.6296 2.26778 17.0464 1.43585 17.8862C0.474509 18.8485 0 20.2216 0 21.9991C0 23.6419 0.419047 24.9352 1.2633 25.8792C2.10756 26.817 3.2661 27.289 4.73893 27.289C5.92829 27.289 6.90812 26.9396 7.67226 26.2469C8.30083 25.6708 8.72604 24.9597 8.96021 24.1016C8.96021 24.1016 8.97254 24.0955 8.97254 24.0893C9.00335 23.9606 9.20671 22.9921 9.20671 22.9921H7.12996C7.11764 23.0473 6.96974 23.5377 6.96974 23.5377L6.96358 23.5438Z" fill="black"/>
<path d="M93.545 11.9588C93.6929 11.2539 92.8671 10.6471 91.7948 10.1629C88.0912 4.07618 81.3741 0 73.7142 0C62.0733 0 52.6016 9.42119 52.6016 21C52.6016 25.3398 53.9327 29.3792 56.2066 32.7259C53.7478 34.2828 51.8868 35.1716 50.9747 38.0035C50.8515 38.3774 51.5848 37.6541 51.9977 37.5867C52.6201 37.4825 50.7652 39.1191 51.4061 39.0946C51.7882 39.4378 54.1052 37.5622 57.1248 36.6611C57.4884 36.5324 55.7136 38.3713 55.9232 38.4326C55.7938 38.7758 58.7517 36.5998 59.0352 37.0289C59.3125 37.458 56.2251 40.6147 56.7304 40.9089C56.8907 41.007 58.0307 40.7741 59.5159 39.4746C60.2184 38.8616 60.6929 38.4448 61.303 37.9729C64.7848 40.4982 69.0739 41.9939 73.7019 41.9939C85.3427 41.9939 94.8144 32.5727 94.8144 20.9939C94.8144 17.7145 94.0565 14.613 92.7007 11.8424C93.1814 11.9098 93.5326 11.9527 93.5326 11.9527L93.545 11.9588ZM73.7142 40.9641C69.4313 40.9641 65.4565 39.6156 62.1904 37.3293C62.3999 37.176 62.6341 37.0166 62.8929 36.8389C65.6968 34.9142 69.2957 33.9764 69.6716 33.8231C70.0537 33.6699 71.0273 32.8301 70.8856 33.7373C70.8425 34.007 70.5898 34.7977 70.7993 35.2207C71.243 35.8091 71.5327 35.2881 71.7792 35.5762C72.2598 36.1217 72.8638 37.648 73.2766 38.6042C73.5108 39.1436 74.275 40.0937 73.9484 40.5657C73.8498 40.7005 73.782 40.8354 73.7203 40.958C73.7203 40.958 73.7142 40.958 73.708 40.958L73.7142 40.9641ZM77.2329 39.9343C77.1713 40.0263 77.0974 40.1611 77.0049 40.3021C76.7584 40.1243 76.401 40.0201 76.0005 39.8792C75.5075 39.7137 75.0268 39.7198 74.4044 38.3713C74.1517 37.8196 73.024 35.3984 73.024 35.3984C72.8884 35.0552 73.0548 34.5219 73.061 34.4545C73.0733 34.3809 73.178 34.3012 73.2705 34.5525C73.3629 34.8039 74.0901 35.3065 74.4414 35.5884C74.6386 35.7478 75.5691 36.9676 75.8464 37.3783C76.1237 37.789 76.9803 39.0701 77.0974 39.2539C77.2884 39.5543 77.3747 39.7198 77.2329 39.9282V39.9343ZM80.382 39.824C80.1108 39.7382 79.7842 39.7014 79.168 39.7872C78.1943 39.9159 76.9125 37.2986 76.5674 36.8695C75.7786 35.8765 75.4828 34.4238 75.4643 34.2215C75.3842 33.3634 75.9943 34.007 76.5181 33.9886C77.0357 33.9702 77.3377 33.5289 77.9293 33.2592C79.1864 32.6769 79.4453 32.8975 81.8979 30.9729C82.9024 30.1821 83.3584 27.9816 84.178 26.9396C86.2671 24.2793 87.9495 23.0228 88.4301 19.7863L88.7383 18.8546C88.9416 18.0271 88.917 17.3774 88.9663 16.6725C89.0156 15.9615 88.1836 14.9133 87.9002 14.4413C87.6167 13.9632 87.7831 13.9877 87.7461 13.7119C87.7091 13.4361 88.2822 12.3818 88.2822 12.3818C88.8307 11.493 90.1926 11.5175 90.1926 11.5175C90.4021 11.542 90.9013 11.6095 91.4559 11.683C92.9411 14.4658 93.7853 17.641 93.7853 21C93.7853 29.6856 88.1775 37.0902 80.382 39.8301V39.824ZM87.7338 8.94921C87.7338 8.94921 87.438 8.53853 86.8525 8.02977C86.2671 7.51489 85.0469 7.13485 83.9685 7.01226C82.8901 6.88354 81.4419 7.56392 80.4498 8.16462C79.4576 8.75919 78.7674 9.93608 78.0649 10.7391C77.3562 11.5359 77.3808 12.4615 77.3808 12.4615C75.7355 12.8783 74.5893 14.5701 73.7881 16.1086C71.9456 17.3345 70.14 18.7872 68.2604 20.2215C65.6352 22.2259 62.6218 24.1629 61.2414 26.7128C61.112 26.9518 61.0503 27.1909 61.0688 27.387C61.0811 27.5893 62.6957 27.6506 62.7019 27.8222C62.7204 28.3862 61.1366 29.0359 59.8363 30.4028C58.3204 31.2855 57.7596 31.7023 57.0817 32.1681C54.9125 28.9807 53.6492 25.1375 53.6492 21.0123C53.6492 10.0035 62.6526 1.04816 73.7203 1.04816C80.5114 1.04816 86.5198 4.42557 90.1556 9.57443C88.88 9.18214 87.7399 8.96147 87.7399 8.96147L87.7338 8.94921Z" fill="black"/>
<path d="M19.2021 26.1734C19.1651 26.0079 19.1466 25.6891 19.1466 25.2294V24.5429C19.1466 23.8319 19.048 23.2986 18.8508 22.9492C18.6536 22.5998 18.3208 22.3301 17.8463 22.1462C18.4133 21.9501 18.8138 21.6252 19.0603 21.1532C19.3068 20.6813 19.4301 20.2093 19.4301 19.725C19.4301 19.3266 19.3623 18.965 19.2329 18.6524C19.1035 18.3398 18.9248 18.0517 18.7029 17.7942C18.4318 17.4816 18.1051 17.2426 17.7231 17.0832C17.341 16.9238 16.7864 16.8319 16.0654 16.8196H11.043V27.0009H13.132V23.0105H15.3382C15.9668 23.0105 16.3981 23.1208 16.6262 23.3354C16.8542 23.5499 16.9774 23.9851 16.9836 24.6348L16.9959 25.5788C16.9959 25.8792 17.0329 26.1734 17.0883 26.4553C17.1192 26.5963 17.1623 26.7741 17.2301 27.0009H19.5841V26.7434C19.3808 26.6208 19.2514 26.4247 19.1959 26.1611L19.2021 26.1734ZM16.6508 21.1655C16.4105 21.2758 16.0469 21.331 15.5662 21.331H13.1444V18.5972H15.634C16.0962 18.5972 16.4413 18.6585 16.6755 18.775C17.0883 18.9895 17.2917 19.4002 17.2917 20.0193C17.2917 20.5893 17.076 20.9755 16.6508 21.1655Z" fill="black"/>
<path d="M26.085 16.5131C24.6245 16.5131 23.5029 16.9115 22.7326 17.7023C21.6973 18.6401 21.1797 20.0376 21.1797 21.901C21.1797 23.7644 21.6973 25.1313 22.7326 26.0998C23.5029 26.8905 24.6245 27.289 26.085 27.289C27.5455 27.289 28.6671 26.8905 29.4374 26.0998C30.4727 25.1252 30.9842 23.7277 30.9842 21.901C30.9842 20.0744 30.4665 18.634 29.4374 17.7023C28.6671 16.9115 27.5455 16.5131 26.085 16.5131ZM28.1063 24.5552C27.6071 25.1742 26.9354 25.4869 26.085 25.4869C25.2346 25.4869 24.5629 25.1742 24.0576 24.5552C23.5522 23.9361 23.2996 23.0473 23.2996 21.901C23.2996 20.7548 23.5522 19.8721 24.0576 19.2469C24.5629 18.6217 25.2407 18.3152 26.085 18.3152C26.9293 18.3152 27.6071 18.6278 28.1001 19.2531C28.5931 19.8783 28.8458 20.7609 28.8458 21.901C28.8458 23.0411 28.5993 23.9299 28.1001 24.5552H28.1063Z" fill="black"/>
<path d="M41.4968 22.7163L41.1887 24.2793L40.8744 22.655L39.6604 16.8257H37.3988L36.2464 22.6918L35.9506 24.2793L35.6548 22.655L34.3052 16.8257H32.0312L34.9338 27.007H36.9242L38.1567 21.0552L38.5203 19.0876L38.8777 21.0552L40.1164 27.007H42.1562L45.0402 16.8257H42.8649L41.4968 22.7163Z" fill="black"/>
<path d="M116.729 16.8257L113.074 27.007H115.311L116.02 24.9107H119.791L120.451 27.007H122.768L119.144 16.8257H116.729ZM116.599 23.1637L117.918 19.155L119.194 23.1637H116.593H116.599Z" fill="black"/>
<path d="M130.643 23.9361L126.563 16.8257H124.32V27.007H126.317V19.7741L130.495 27.007H132.633V16.8257H130.643V23.9361Z" fill="black"/>
<path d="M138.725 21.2636L136.599 16.8257H134.078L137.615 23.1821V27.007H139.754V23.1821L143.18 16.8257H140.758L138.725 21.2636Z" fill="black"/>
<path d="M149.218 16.5131C147.757 16.5131 146.636 16.9115 145.865 17.7023C144.83 18.6401 144.312 20.0376 144.312 21.901C144.312 23.7644 144.83 25.1313 145.865 26.0998C146.636 26.8905 147.757 27.289 149.218 27.289C150.678 27.289 151.8 26.8905 152.57 26.0998C153.605 25.1252 154.117 23.7277 154.117 21.901C154.117 20.0744 153.599 18.634 152.57 17.7023C151.8 16.9115 150.678 16.5131 149.218 16.5131ZM151.239 24.5552C150.74 25.1742 150.068 25.4869 149.218 25.4869C148.367 25.4869 147.696 25.1742 147.19 24.5552C146.685 23.9361 146.432 23.0473 146.432 21.901C146.432 20.7548 146.685 19.8721 147.19 19.2469C147.696 18.6217 148.374 18.3152 149.218 18.3152C150.062 18.3152 150.74 18.6278 151.233 19.2531C151.726 19.8783 151.979 20.7609 151.979 21.901C151.979 23.0411 151.732 23.9299 151.233 24.5552H151.239Z" fill="black"/>
<path d="M162.32 16.8257V23.9361L158.247 16.8257H156.004V27.007H157.994V19.7741L162.179 27.007H164.317V16.8257H162.32Z" fill="black"/>
<path d="M109.764 23.5438C109.623 24.0709 109.438 24.4632 109.222 24.7268C108.828 25.2172 108.255 25.4562 107.509 25.4562C106.763 25.4562 106.172 25.1743 105.697 24.6042C105.223 24.0342 104.982 23.1821 104.982 22.0359C104.982 20.8897 105.204 20.0131 105.654 19.3879C106.104 18.7627 106.714 18.4501 107.497 18.4501C108.279 18.4501 108.84 18.6708 109.228 19.1121C109.444 19.3634 109.623 19.7312 109.764 20.2154H111.903C111.872 19.5779 111.632 18.9466 111.194 18.3152C110.399 17.1935 109.136 16.6296 107.416 16.6296C106.129 16.6296 105.069 17.0464 104.237 17.8862C103.275 18.8485 102.801 20.2216 102.801 21.9991C102.801 23.6419 103.22 24.9352 104.064 25.8792C104.908 26.817 106.067 27.289 107.54 27.289C108.729 27.289 109.709 26.9396 110.473 26.2469C111.102 25.6708 111.527 24.9597 111.761 24.1016C111.761 24.1016 111.773 24.0955 111.773 24.0893C111.804 23.9606 112.007 22.9921 112.007 22.9921H109.931C109.918 23.0473 109.771 23.5377 109.771 23.5377L109.764 23.5438Z" fill="black"/>
</g>
<defs>
<clipPath id="clip0_639_563">
<rect width="165" height="42" fill="white"/>
</clipPath>
</defs>
</svg>
